# xmcd
#
# Track frame offsets:
#	150
#	18765
#	36257
#	51010
#	67449
#	92243
#	110605
#	127744
#	149993
#	192782
#	208814
#	223739
#
# Disc length: 3183 seconds
#
# Revision: 1
# Processed by: cddbd v1.4PL0 Copyright (c) Steve Scherf et al.
# Submitted via: audiograbber 1.80.04
#
DISCID=be0c6d0c
DTITLE=Rick Derringer - Blues Deluxe
DYEAR=1998
DGENRE=Blues
TTITLE0=Let The Good Times Roll
TTITLE1=Runnin' Blue
TTITLE2=Blues Power
TTITLE3=Key To The Highway
TTITLE4=Blues Deluxe
TTITLE5=Hide Away 1962
TTITLE6=Killing Floor
TTITLE7=Funky Music
TTITLE8=Something Inside Of Me
TTITLE9=Still Alive And Well
TTITLE10=Bright Lights, Big City
TTITLE11=Checking Up On My Baby
EXTD=
EXTT0=
EXTT1=
EXTT2=
EXTT3=
EXTT4=
EXTT5=
EXTT6=
EXTT7=
EXTT8=
EXTT9=
EXTT10=
EXTT11=
PLAYORDER=
